<svg width="1152" height="700" viewBox="0 0 1152 700" fill="none" xmlns="http://www.w3.org/2000/svg">
<path d="M740.501 667.276C681.685 615.761 594.604 623.043 546.002 683.542C543.708 686.397 541.541 689.321 539.499 692.304L539.057 691.917C536.703 694.565 534.264 697.093 531.745 699.5L767.941 699.5C760.555 687.706 751.395 676.817 740.501 667.276Z" fill="#758ECD"/>
<path d="M345 699.5C287.345 649.003 280.254 563.999 324.034 503.588L323.929 503.496C325.465 501.767 326.967 499.989 328.434 498.163C377.037 437.664 368.708 346.818 309.832 295.251C250.956 243.684 163.828 250.925 115.226 311.423C113.758 313.249 112.343 315.103 110.979 316.983L110.78 316.808C82.5994 348.543 39.2148 368.486 6.05783e-05 366.5L5.91382e-05 699.5L345 699.5Z" fill="#758ECD"/>
<path d="M177.52 407.654C242.142 327.102 231.093 206.269 152.813 137.707C108.831 99.1853 52.9796 85.3562 0.999939 94.903L0.999939 1.00012L1151 1.00013L1151 700L768.716 700C757.544 675.548 741.253 653.095 720.012 634.491C641.698 565.899 525.752 575.596 461.038 656.148C460.876 656.35 460.714 656.552 460.553 656.755L460.551 656.753C445.949 674.776 428.771 689.22 410.026 700L233.246 700C222.374 693.833 211.921 686.44 202.064 677.806C123.946 609.387 112.78 488.915 176.953 408.363L176.951 408.361C177.086 408.194 177.221 408.027 177.356 407.859L177.52 407.654Z" fill="#CC9B8B" fill-opacity="0.6"/>
</svg>
