<svg width="571" height="412" viewBox="0 0 571 412" fill="none" xmlns="http://www.w3.org/2000/svg">
<path fill-rule="evenodd" clip-rule="evenodd" d="M511.376 39.6347C514.573 53.4148 513.437 64.6581 508.02 73.2855L500.279 85.5065V86.5899L501.362 88.096L502.855 91.399V91.7557L505.074 96.1949V96.6045L507.294 101.044L508.02 102.127L510.65 107.293L511.733 108.786L515.089 115.088L527.639 134.338C535.276 144.194 542.912 156.983 550.601 172.784C558.449 189.55 563.297 203.383 565.002 214.217C569.229 241.367 571.039 262.07 570.577 276.366C569.797 299.539 563.654 318.062 552.041 331.842C541.208 344.949 512.248 357.896 465.136 370.699C399.541 388.191 366.354 397.07 365.64 397.334C344.687 405.235 313.561 406.569 272.381 401.403C234.398 396.449 193.627 386.751 149.976 372.205L136.659 366.986L114.054 355.531L100.38 345.926L87.4199 333.335L85.2003 330.389C83.496 328.645 81.6464 326.32 79.6779 323.374L73.746 314.495C71.7907 310.783 69.3069 305.207 66.3608 297.835L66.004 297.465L63.375 288.957L63.0183 288.23L60.7987 280.078V278.942L58.9359 270.473V269.707C57.2316 258.86 56.6107 246.533 57.1259 232.7V232.344L57.4959 230.89L58.9359 218.299L64.1412 198.323L69.3069 185.375L87.4199 152.808L102.957 132.118L103.736 130.982C108.637 125.089 114.305 118.906 120.713 112.498L139.235 95.4682L205.808 46.2935L206.535 45.9236L206.944 44.4307L208.027 41.8543L210.604 31.1131V30.7563L211.383 24.8242V22.6046L210.974 14.8096L211.74 12.59V12.22L213.603 10.3704L214.329 10.0004L214.686 9.64371L216.179 9.28698V8.91705L220.261 8.15078L226.14 7.78085C237.238 2.36397 249.208 -0.212369 262.062 0.0518695C273.358 0.0518695 283.016 2.27147 290.916 6.69746C298.804 11.1367 307.325 15.0606 316.401 18.5221C326.521 22.4989 333.695 24.4543 337.87 24.4543C350.46 24.4543 365.64 21.0984 383.397 14.4396C395.208 10.0004 405.222 7.31841 413.321 6.34073C423.441 5.09881 432.728 5.82549 441.091 8.56035C447.234 10.5289 463.022 11.7576 488.415 12.22C509.421 15.2191 517.057 24.2957 511.376 39.6347V39.6347Z" fill="#636C70"/>
<path fill-rule="evenodd" clip-rule="evenodd" d="M321.567 66.2041C316.401 64.764 309.029 60.6815 299.372 54.0227C290.031 47.6282 282.395 43.6514 276.463 42.1584C265.366 39.9388 257.108 38.1288 251.692 36.6359C241.836 34.4163 233.935 31.0604 228.003 26.6212L218.769 20.3324C224.185 13.6736 238.731 9.64396 262.419 8.15101C269.54 7.63575 277.335 9.64395 285.698 14.0832C290.388 16.567 297.668 20.7419 307.523 26.6212C321.356 33.28 337.619 35.0372 356.353 31.8399C366.975 30.0828 383.238 26.4231 405.169 20.7419C421.948 17.4918 436.494 16.7652 448.833 18.5224C452.282 18.9848 460.288 19.6057 472.878 20.3324C484.491 21.5611 491.612 24.1506 494.294 28.1274C499.513 35.7639 495.694 42.4227 482.84 48.0906C467.303 53.045 457.711 56.348 453.986 58.0524C443.152 63.5221 435.622 66.7194 431.434 67.7103C425.29 68.939 417.245 68.5822 407.389 66.574C401.457 65.3321 386.33 64.764 361.928 64.764C359.907 64.764 353.143 65.3321 341.543 66.574C332.916 67.6046 326.257 67.446 321.567 66.2041V66.2041Z" fill="black" fill-opacity="0.4"/>
<path fill-rule="evenodd" clip-rule="evenodd" d="M294.986 19.6072L294.576 19.9639C291.168 23.4255 285.592 26.6756 277.956 29.6219C269.342 33.0834 263.503 35.9107 260.57 38.1303L259.843 38.5002C245.495 35.554 234.913 31.5772 228.003 26.6756L218.769 20.3867C224.185 13.7279 238.731 9.64546 262.419 8.15252C268.1 7.63725 273.781 8.66778 279.396 11.0856C282.659 12.3275 287.812 15.168 294.986 19.6072V19.6072Z" fill="black" fill-opacity="0.2"/>
<path fill-rule="evenodd" clip-rule="evenodd" d="M313.825 62.9013C316.772 51.8166 316.772 40.56 313.825 29.211C327.394 34.4165 343.802 34.7732 363.012 30.3472L363.778 31.0607C368.217 33.7955 371.784 38.6971 374.519 45.8712C375.959 49.7951 378.073 55.9915 380.808 64.3547L361.928 64.7642C359.96 64.7642 353.143 65.3323 341.583 66.5743C332.916 67.5519 326.257 67.4462 321.567 66.2043L313.825 62.9013V62.9013Z" fill="black" fill-opacity="0.2"/>
<path fill-rule="evenodd" clip-rule="evenodd" d="M494.347 28.1286C499.512 35.7651 495.694 42.4239 482.892 48.0918C467.355 53.0463 457.711 56.3492 454.038 58.0536C448.622 61.0527 443.773 63.2723 439.585 64.7124C441.342 40.2968 442.941 24.7728 444.394 18.114L448.833 18.4707C452.281 18.986 460.34 19.6069 472.878 20.3336C484.491 21.5623 491.612 24.2047 494.347 28.1286Z" fill="black" fill-opacity="0.2"/>
<path fill-rule="evenodd" clip-rule="evenodd" d="M253.541 95.4684C261.442 88.8096 268.563 76.5886 274.957 58.8318V59.9152C262.882 89.021 253.753 104.096 247.609 105.073L253.541 95.4684Z" fill="black" fill-opacity="0.1451"/>
<path fill-rule="evenodd" clip-rule="evenodd" d="M320.114 113.952L314.961 112.089C314.182 100.264 312.332 90.5136 309.386 82.8772L317.181 83.6038C321.818 83.8548 327.763 82.7715 334.937 80.3008C334.21 94.3319 332.453 106.672 329.718 117.307C328.477 117.043 325.279 115.907 320.114 113.952Z" fill="black" fill-opacity="0.1451"/>
<path fill-rule="evenodd" clip-rule="evenodd" d="M435.517 77.3548L439.956 76.2185C440.471 76.9452 443.668 80.6577 449.6 87.3165C453.788 92.0068 456.1 96.446 456.615 100.634C455.123 104.347 454.039 108.271 453.273 112.446C449.6 112.247 444.91 112.71 439.229 113.952C438.503 112.961 437.472 112.247 436.283 111.732C434.79 111.27 433.403 111.626 432.214 112.868C430.457 114.308 429.215 115.18 428.501 115.445C426.018 116.171 422.556 116.422 418.117 116.171C412.965 116.171 409.398 116.317 407.39 116.528C411.366 110.385 414.207 103.99 415.898 97.3312C417.404 90.4082 417.298 84.476 415.541 79.5744C424.155 79.5215 430.813 78.7949 435.517 77.3548V77.3548Z" fill="black" fill-opacity="0.1451"/>
<path fill-rule="evenodd" clip-rule="evenodd" d="M336.378 152.399C340.817 145.529 343.552 136.043 344.529 123.914C349.484 111.112 353.051 94.9536 355.27 75.4925L361.202 75.1357L372.3 75.8624C365.892 82.0059 359.339 94.7025 352.681 113.952C345.771 134.642 340.355 147.497 336.378 152.399Z" fill="black" fill-opacity="0.1451"/>
<path fill-rule="evenodd" clip-rule="evenodd" d="M381.534 170.155C380.041 157.088 379.314 146.36 379.314 137.997C382.511 138.724 391.746 139.701 407.032 140.943C408.525 140.943 412.594 140.573 419.252 139.86C424.933 139.344 429.016 139.344 431.433 139.86C437.63 149.716 436.758 166.944 428.857 191.624C420.706 216.291 411.365 230.639 400.73 234.563C389.632 238.473 374.254 240.231 354.49 239.715C331.066 239.464 315.423 239.98 307.523 241.208C294.985 243.177 280.796 243.692 265.008 242.714C256.381 242.199 242.919 240.693 224.7 238.275C234.556 242.913 242.919 245.647 249.828 246.374C254.532 246.889 267.585 249.109 289.053 253.086C307.787 256.283 320.84 258.146 328.278 258.608C350.46 260.313 365.231 263.404 372.656 267.843C380.292 272.798 374.611 283.024 355.626 298.548C338.596 312.592 324.46 321.471 313.098 325.183C302.476 328.896 286.57 330.494 265.365 329.979C241.928 328.79 225.889 328.129 217.262 328.129C191.156 328.129 174.378 327.759 166.953 327.046C148.47 325.077 132.682 320.229 119.629 312.645C113.684 308.919 107.647 303.357 101.516 295.972C98.5703 292.774 93.616 286.367 86.6932 276.722L82.2673 270.843C85.2531 266.866 87.4727 259.943 88.9127 250.087C90.6698 238.011 91.6607 231.458 91.9117 230.48C93.867 223.821 97.0774 219.277 101.516 216.806C110.381 226.2 121.122 232.951 133.713 237.139C145.273 241.314 157.718 242.965 171.022 241.988C170.309 238.526 167.468 234.457 162.567 229.754C156.159 224.086 151.311 219.897 148.113 217.163H148.47C148.272 216.185 146.515 214.745 143.318 212.723C140.834 210.504 138.984 208.086 137.742 205.351C146.871 208.548 160.189 213.239 177.733 219.382C192.755 223.821 206.693 226.2 219.482 226.451C237.291 226.662 263.04 224.852 296.848 220.875C306.189 220.413 319.757 220.413 337.513 220.875C352.059 219.646 363.157 213.503 370.793 202.405C377.914 191.981 381.534 181.292 381.534 170.155V170.155Z" fill="black" fill-opacity="0.1451"/>
<path fill-rule="evenodd" clip-rule="evenodd" d="M73.3893 250.458V251.951L71.1697 256.747C66.7307 250.551 63.1107 244.936 60.4288 239.717L57.4958 232.345L57.8526 230.839C58.8302 210.611 66.004 189.195 79.3212 166.483C81.0255 178.559 83.866 188.574 87.7898 196.474C84.3812 204.111 81.8974 211.642 80.4046 219.027C75.7013 231.354 73.3893 241.831 73.3893 250.458V250.458Z" fill="black" fill-opacity="0.1451"/>
<path fill-rule="evenodd" clip-rule="evenodd" d="M321.198 148.369C323.219 148.369 324.659 148.118 325.637 147.603C326.416 150.285 326.165 154.301 324.923 159.626C322.189 160.141 319.348 159.93 316.402 159.058L315.688 137.998C319.137 139.24 321.62 140.574 323.06 142.08L321.198 148.369V148.369Z" fill="black" fill-opacity="0.1451"/>
<path fill-rule="evenodd" clip-rule="evenodd" d="M223.921 19.6062C222.679 16.1447 221.966 12.9474 221.701 10.0012L223.564 7.78157H226.51L225.057 11.4545C224.079 14.1893 223.67 16.8713 223.921 19.6062Z" fill="black" fill-opacity="0.1451"/>
<path fill-rule="evenodd" clip-rule="evenodd" d="M237.648 64.4086C238.111 57.2345 237.503 50.8268 235.799 45.1589C234.557 41.1821 231.98 35.5538 228.004 28.1287C228.981 29.3574 230.118 30.3483 231.359 31.1146C237.754 35.3028 244.677 38.9625 252.049 42.2126C254.783 48.3561 254.532 57.327 251.322 69.2045C249.314 69.667 246.011 68.5836 241.321 65.9016L237.648 64.4086V64.4086Z" fill="black" fill-opacity="0.1451"/>
<path fill-rule="evenodd" clip-rule="evenodd" d="M251.321 69.2037C254.532 57.3262 254.73 48.3553 252.048 42.159C259.222 45.1581 264.744 47.0077 268.668 47.7344C271.139 48.4611 272.75 49.954 273.517 52.1736C273.979 52.9002 274.494 55.1198 274.957 58.8324C268.562 76.5892 261.389 88.7573 253.541 95.469C259.948 82.878 260.768 72.6124 256.13 64.7645C254.624 67.2352 253.026 68.6885 251.321 69.2037V69.2037Z" fill="black" fill-opacity="0.1451"/>
<path fill-rule="evenodd" clip-rule="evenodd" d="M251.321 69.2037C254.532 57.3262 254.73 48.3553 252.048 42.159C259.222 45.1581 264.744 47.0077 268.668 47.7344C271.139 48.4611 272.75 49.954 273.517 52.1736C273.979 52.9002 274.494 55.1198 274.957 58.8324C268.562 76.5892 261.389 88.7573 253.541 95.469C259.948 82.878 260.768 72.6124 256.13 64.7645C254.624 67.2352 253.026 68.6885 251.321 69.2037V69.2037Z" fill="black" fill-opacity="0.2"/>
<path fill-rule="evenodd" clip-rule="evenodd" d="M344.529 112.089C341.583 117.043 336.629 118.747 329.719 117.255C332.454 106.672 334.158 94.3319 334.885 80.3008C344.529 77.566 351.294 75.9673 355.27 75.4521C353.051 94.9528 349.484 111.111 344.529 123.913V112.089Z" fill="black" fill-opacity="0.1451"/>
<path fill-rule="evenodd" clip-rule="evenodd" d="M344.529 112.089C341.583 117.043 336.629 118.747 329.719 117.255C332.454 106.672 334.158 94.3319 334.885 80.3008C344.529 77.566 351.294 75.9673 355.27 75.4521C353.051 94.9528 349.484 111.111 344.529 123.913V112.089Z" fill="black" fill-opacity="0.2"/>
<path fill-rule="evenodd" clip-rule="evenodd" d="M321.198 148.368L323.06 142.079C324.302 143.255 325.174 145.118 325.637 147.602C324.659 148.117 323.219 148.368 321.198 148.368Z" fill="black" fill-opacity="0.1451"/>
<path fill-rule="evenodd" clip-rule="evenodd" d="M321.198 148.368L323.06 142.079C324.302 143.255 325.174 145.118 325.637 147.602C324.659 148.117 323.219 148.368 321.198 148.368Z" fill="black" fill-opacity="0.2"/>
<path fill-rule="evenodd" clip-rule="evenodd" d="M431.434 139.86L435.16 141.71L436.653 136.135C450.221 134.43 461.424 131.497 470.302 127.256H472.522C469.827 133.452 465.493 142.172 459.614 153.535C455.122 163.906 452.546 174.026 451.819 183.882C451.819 184.398 452.903 197.041 455.122 221.959C456.153 234.563 452.44 245.912 444.025 255.98L405.949 296.699C403.254 299.632 406.306 305.207 415.184 313.359C424.313 321.471 427.669 327.509 425.198 331.472C416.782 345.054 403.465 353.774 385.247 357.751C362.074 359.971 344.067 361.926 331.212 363.683C301.856 367.607 268.563 368.122 231.359 365.123C195.332 362.19 162.567 356.509 132.934 348.093C110.025 341.698 89.019 327.76 70.0869 306.343C60.4293 285.852 56.2545 261.185 57.4964 232.344L60.4293 239.716C63.1641 244.935 66.7312 250.55 71.1703 256.746C68.2241 264.131 66.467 268.822 66.0046 270.79C64.5117 280.435 66.3613 287.82 71.527 292.973C73.7465 295.245 77.2079 299.064 81.898 304.494C86.086 308.669 90.1552 311.245 94.079 312.223C86.958 293.752 82.6246 280.435 81.1317 272.283L82.2679 270.79L86.6938 276.722C93.6166 286.327 98.518 292.775 101.517 295.972C107.647 303.358 113.685 308.92 119.63 312.593C132.683 320.229 148.471 325.078 166.953 327.046C174.378 327.76 191.157 328.13 217.263 328.13C225.89 328.13 241.929 328.738 265.366 329.98C286.57 330.495 302.477 328.896 313.099 325.184C324.408 321.471 338.597 312.593 355.627 298.548C374.611 283.024 380.292 272.746 372.603 267.844C365.231 263.405 350.408 260.313 328.226 258.609C320.841 258.094 307.788 256.231 289.001 253.033C267.585 249.109 254.532 246.89 249.829 246.375C242.919 245.648 234.557 242.913 224.648 238.223C242.919 240.694 256.329 242.2 265.009 242.662C280.797 243.693 294.933 243.177 307.524 241.209C315.424 239.98 331.066 239.465 354.49 239.716C374.202 240.178 389.633 238.474 400.731 234.563C411.366 230.586 420.706 216.291 428.858 191.624C436.758 166.945 437.63 149.716 431.434 139.86V139.86Z" fill="black" fill-opacity="0.1451"/>
<path fill-rule="evenodd" clip-rule="evenodd" d="M431.434 139.86L435.16 141.71L436.653 136.135C450.221 134.43 461.424 131.497 470.302 127.256H472.522C469.827 133.452 465.493 142.172 459.614 153.535C455.122 163.906 452.546 174.026 451.819 183.882C451.819 184.398 452.903 197.041 455.122 221.959C456.153 234.563 452.44 245.912 444.025 255.98L405.949 296.699C403.254 299.632 406.306 305.207 415.184 313.359C424.313 321.471 427.669 327.509 425.198 331.472C416.782 345.054 403.465 353.774 385.247 357.751C362.074 359.971 344.067 361.926 331.212 363.683C301.856 367.607 268.563 368.122 231.359 365.123C195.332 362.19 162.567 356.509 132.934 348.093C110.025 341.698 89.019 327.76 70.0869 306.343C60.4293 285.852 56.2545 261.185 57.4964 232.344L60.4293 239.716C63.1641 244.935 66.7312 250.55 71.1703 256.746C68.2241 264.131 66.467 268.822 66.0046 270.79C64.5117 280.435 66.3613 287.82 71.527 292.973C73.7465 295.245 77.2079 299.064 81.898 304.494C86.086 308.669 90.1552 311.245 94.079 312.223C86.958 293.752 82.6246 280.435 81.1317 272.283L82.2679 270.79L86.6938 276.722C93.6166 286.327 98.518 292.775 101.517 295.972C107.647 303.358 113.685 308.92 119.63 312.593C132.683 320.229 148.471 325.078 166.953 327.046C174.378 327.76 191.157 328.13 217.263 328.13C225.89 328.13 241.929 328.738 265.366 329.98C286.57 330.495 302.477 328.896 313.099 325.184C324.408 321.471 338.597 312.593 355.627 298.548C374.611 283.024 380.292 272.746 372.603 267.844C365.231 263.405 350.408 260.313 328.226 258.609C320.841 258.094 307.788 256.231 289.001 253.033C267.585 249.109 254.532 246.89 249.829 246.375C242.919 245.648 234.557 242.913 224.648 238.223C242.919 240.694 256.329 242.2 265.009 242.662C280.797 243.693 294.933 243.177 307.524 241.209C315.424 239.98 331.066 239.465 354.49 239.716C374.202 240.178 389.633 238.474 400.731 234.563C411.366 230.586 420.706 216.291 428.858 191.624C436.758 166.945 437.63 149.716 431.434 139.86V139.86Z" fill="black" fill-opacity="0.2"/>
<path fill-rule="evenodd" clip-rule="evenodd" d="M466.576 69.5606C466.114 74.264 464.727 79.5224 462.507 85.4545C461.318 88.916 459.31 93.9762 456.615 100.635C456.1 96.4468 453.787 92.0076 449.599 87.3174C443.667 80.6586 440.47 76.946 439.955 76.2194L466.576 69.5606V69.5606Z" fill="black" fill-opacity="0.1451"/>
<path fill-rule="evenodd" clip-rule="evenodd" d="M466.576 69.5606C466.114 74.264 464.727 79.5224 462.507 85.4545C461.318 88.916 459.31 93.9762 456.615 100.635C456.1 96.4468 453.787 92.0076 449.599 87.3174C443.667 80.6586 440.47 76.946 439.955 76.2194L466.576 69.5606V69.5606Z" fill="black" fill-opacity="0.2"/>
<path fill-rule="evenodd" clip-rule="evenodd" d="M439.585 126.543C440.827 120.611 440.669 116.422 439.229 113.952C444.91 112.71 449.6 112.247 453.273 112.446C454.039 108.271 455.122 104.347 456.615 100.634C457.091 103.369 456.985 106.21 456.258 109.143C454.501 116.066 448.979 121.839 439.585 126.543Z" fill="black" fill-opacity="0.1451"/>
<path fill-rule="evenodd" clip-rule="evenodd" d="M439.585 126.543C440.827 120.611 440.669 116.422 439.229 113.952C444.91 112.71 449.6 112.247 453.273 112.446C454.039 108.271 455.122 104.347 456.615 100.634C457.091 103.369 456.985 106.21 456.258 109.143C454.501 116.066 448.979 121.839 439.585 126.543Z" fill="black" fill-opacity="0.2"/>
<path fill-rule="evenodd" clip-rule="evenodd" d="M462.507 85.4534C464.727 79.5213 466.114 74.2629 466.576 69.5595C478.453 66.8246 487.582 63.7859 493.99 60.3244C499.407 57.8537 503.74 54.2865 506.937 49.5963V75.8616L500.649 85.8233L501.732 88.0429C498.059 89.5359 495.43 92.7331 493.99 97.6876C493.475 90.0511 490.423 86.4443 484.742 86.9596C481.294 87.422 476.696 91.0288 471.068 97.6876C465.136 104.558 462.296 109.618 462.507 112.868L464.357 122.83C464.159 125.816 466.114 127.256 470.302 127.256C461.424 131.444 450.22 134.43 436.652 136.134L439.585 126.542C448.979 121.839 454.501 116.065 456.258 109.142C456.985 106.209 457.09 103.369 456.615 100.634C459.31 93.9751 461.318 88.9149 462.507 85.4534V85.4534Z" fill="black" fill-opacity="0.1451"/>
<path fill-rule="evenodd" clip-rule="evenodd" d="M462.507 85.4534C464.727 79.5213 466.114 74.2629 466.576 69.5595C478.453 66.8246 487.582 63.7859 493.99 60.3244C499.407 57.8537 503.74 54.2865 506.937 49.5963V75.8616L500.649 85.8233L501.732 88.0429C498.059 89.5359 495.43 92.7331 493.99 97.6876C493.475 90.0511 490.423 86.4443 484.742 86.9596C481.294 87.422 476.696 91.0288 471.068 97.6876C465.136 104.558 462.296 109.618 462.507 112.868L464.357 122.83C464.159 125.816 466.114 127.256 470.302 127.256C461.424 131.444 450.22 134.43 436.652 136.134L439.585 126.542C448.979 121.839 454.501 116.065 456.258 109.142C456.985 106.209 457.09 103.369 456.615 100.634C459.31 93.9751 461.318 88.9149 462.507 85.4534V85.4534Z" fill="black" fill-opacity="0.2"/>
<path fill-rule="evenodd" clip-rule="evenodd" d="M462.507 85.4534C464.727 79.5213 466.114 74.2629 466.576 69.5595C478.453 66.8246 487.582 63.7859 493.99 60.3244C499.407 57.8537 503.74 54.2865 506.937 49.5963V75.8616L500.649 85.8233L501.732 88.0429C498.059 89.5359 495.43 92.7331 493.99 97.6876C493.475 90.0511 490.423 86.4443 484.742 86.9596C481.294 87.422 476.696 91.0288 471.068 97.6876C465.136 104.558 462.296 109.618 462.507 112.868L464.357 122.83C464.159 125.816 466.114 127.256 470.302 127.256C461.424 131.444 450.22 134.43 436.652 136.134L439.585 126.542C448.979 121.839 454.501 116.065 456.258 109.142C456.985 106.209 457.09 103.369 456.615 100.634C459.31 93.9751 461.318 88.9149 462.507 85.4534V85.4534Z" fill="black" fill-opacity="0.2"/>
<path fill-rule="evenodd" clip-rule="evenodd" d="M451.819 183.883C452.546 174.027 455.122 163.907 459.561 153.536C465.493 142.173 469.826 133.454 472.521 127.257C478.916 127.006 484.385 125.566 488.824 122.831L491.044 120.968C490.78 131.34 491.863 146.362 494.347 166.127C496.302 184.134 497.187 194.506 496.923 197.188C496.461 202.618 493.62 210.149 488.415 219.74C483.513 228.883 480.779 236.52 480.303 242.716C479.537 250.088 481.135 258.716 485.112 268.572C490.991 283.382 494.083 291.534 494.347 292.974C473.129 300.148 455.492 309.912 441.448 322.238C450.577 322.701 464.264 323.837 482.523 325.541C486.446 340.828 463.128 355.783 412.594 370.343C372.405 381.639 338.597 388.1 311.249 389.54C290.296 390.782 265.365 389.025 236.512 384.374C211.846 380.199 187.537 374.518 163.65 367.344C139.183 360.223 111.108 345.161 79.2686 322.238C75.8072 317.284 72.7686 311.973 70.0338 306.345C89.0187 327.761 109.972 341.7 132.934 348.094C162.514 356.51 195.331 362.191 231.306 365.124C268.563 368.071 301.856 367.608 331.211 363.631C344.013 361.927 362.021 359.972 385.194 357.699C403.465 353.775 416.782 345.003 425.145 331.474C427.616 327.51 424.313 321.472 415.184 313.307C406.306 305.208 403.214 299.633 405.949 296.7L444.024 255.981C452.387 245.86 456.1 234.564 455.122 221.96C452.902 197.042 451.819 184.399 451.819 183.883V183.883Z" fill="black" fill-opacity="0.1451"/>
<path fill-rule="evenodd" clip-rule="evenodd" d="M451.819 183.883C452.546 174.027 455.122 163.907 459.561 153.536C465.493 142.173 469.826 133.454 472.521 127.257C478.916 127.006 484.385 125.566 488.824 122.831L491.044 120.968C490.78 131.34 491.863 146.362 494.347 166.127C496.302 184.134 497.187 194.506 496.923 197.188C496.461 202.618 493.62 210.149 488.415 219.74C483.513 228.883 480.779 236.52 480.303 242.716C479.537 250.088 481.135 258.716 485.112 268.572C490.991 283.382 494.083 291.534 494.347 292.974C473.129 300.148 455.492 309.912 441.448 322.238C450.577 322.701 464.264 323.837 482.523 325.541C486.446 340.828 463.128 355.783 412.594 370.343C372.405 381.639 338.597 388.1 311.249 389.54C290.296 390.782 265.365 389.025 236.512 384.374C211.846 380.199 187.537 374.518 163.65 367.344C139.183 360.223 111.108 345.161 79.2686 322.238C75.8072 317.284 72.7686 311.973 70.0338 306.345C89.0187 327.761 109.972 341.7 132.934 348.094C162.514 356.51 195.331 362.191 231.306 365.124C268.563 368.071 301.856 367.608 331.211 363.631C344.013 361.927 362.021 359.972 385.194 357.699C403.465 353.775 416.782 345.003 425.145 331.474C427.616 327.51 424.313 321.472 415.184 313.307C406.306 305.208 403.214 299.633 405.949 296.7L444.024 255.981C452.387 245.86 456.1 234.564 455.122 221.96C452.902 197.042 451.819 184.399 451.819 183.883V183.883Z" fill="black" fill-opacity="0.2"/>
<path fill-rule="evenodd" clip-rule="evenodd" d="M451.819 183.883C452.546 174.027 455.122 163.907 459.561 153.536C465.493 142.173 469.826 133.454 472.521 127.257C478.916 127.006 484.385 125.566 488.824 122.831L491.044 120.968C490.78 131.34 491.863 146.362 494.347 166.127C496.302 184.134 497.187 194.506 496.923 197.188C496.461 202.618 493.62 210.149 488.415 219.74C483.513 228.883 480.779 236.52 480.303 242.716C479.537 250.088 481.135 258.716 485.112 268.572C490.991 283.382 494.083 291.534 494.347 292.974C473.129 300.148 455.492 309.912 441.448 322.238C450.577 322.701 464.264 323.837 482.523 325.541C486.446 340.828 463.128 355.783 412.594 370.343C372.405 381.639 338.597 388.1 311.249 389.54C290.296 390.782 265.365 389.025 236.512 384.374C211.846 380.199 187.537 374.518 163.65 367.344C139.183 360.223 111.108 345.161 79.2686 322.238C75.8072 317.284 72.7686 311.973 70.0338 306.345C89.0187 327.761 109.972 341.7 132.934 348.094C162.514 356.51 195.331 362.191 231.306 365.124C268.563 368.071 301.856 367.608 331.211 363.631C344.013 361.927 362.021 359.972 385.194 357.699C403.465 353.775 416.782 345.003 425.145 331.474C427.616 327.51 424.313 321.472 415.184 313.307C406.306 305.208 403.214 299.633 405.949 296.7L444.024 255.981C452.387 245.86 456.1 234.564 455.122 221.96C452.902 197.042 451.819 184.399 451.819 183.883V183.883Z" fill="black" fill-opacity="0.2"/>
<path fill-rule="evenodd" clip-rule="evenodd" d="M508.378 73.2336L506.938 75.8628V49.5975C508.642 47.3779 509.989 44.9998 510.967 42.5159L511.733 39.5829L513.239 51.4472C513.438 60.5898 511.839 67.8035 508.378 73.2336V73.2336Z" fill="black" fill-opacity="0.1451"/>
<path fill-rule="evenodd" clip-rule="evenodd" d="M508.378 73.2336L506.938 75.8628V49.5975C508.642 47.3779 509.989 44.9998 510.967 42.5159L511.733 39.5829L513.239 51.4472C513.438 60.5898 511.839 67.8035 508.378 73.2336V73.2336Z" fill="black" fill-opacity="0.2"/>
<path fill-rule="evenodd" clip-rule="evenodd" d="M508.378 73.2336L506.938 75.8628V49.5975C508.642 47.3779 509.989 44.9998 510.967 42.5159L511.733 39.5829L513.239 51.4472C513.438 60.5898 511.839 67.8035 508.378 73.2336V73.2336Z" fill="black" fill-opacity="0.2"/>
<path fill-rule="evenodd" clip-rule="evenodd" d="M508.378 73.2336L506.938 75.8628V49.5975C508.642 47.3779 509.989 44.9998 510.967 42.5159L511.733 39.5829L513.239 51.4472C513.438 60.5898 511.839 67.8035 508.378 73.2336V73.2336Z" fill="black" fill-opacity="0.2"/>
<path fill-rule="evenodd" clip-rule="evenodd" d="M493.99 97.6876C495.483 92.7332 498.06 89.5359 501.732 88.0429C510.346 107.544 519.119 122.922 527.997 134.285C535.633 144.141 543.269 156.983 550.958 172.784C558.806 189.55 563.654 203.33 565.359 214.217C569.534 241.314 571.396 262.07 570.881 276.365C570.155 299.539 564.011 318.009 552.398 331.842C541.565 344.896 512.566 357.856 465.493 370.698C399.859 388.191 366.724 397.069 365.945 397.334C344.991 405.234 313.931 406.569 272.751 401.403C234.768 396.448 193.945 386.698 150.281 372.152C118.031 361.305 94.3432 344.684 79.2689 322.237C111.109 345.16 139.183 360.221 163.651 367.343C187.537 374.517 211.846 380.198 236.512 384.373C265.366 389.023 290.243 390.781 311.196 389.539C338.597 388.046 372.405 381.638 412.594 370.342C463.128 355.782 486.447 340.826 482.483 325.54C464.212 323.836 450.577 322.7 441.395 322.237C455.492 309.91 473.129 300.147 494.294 292.973C494.083 291.533 490.991 283.381 485.059 268.57C481.136 258.714 479.537 250.087 480.264 242.715C480.779 236.518 483.461 228.882 488.415 219.739C493.568 210.147 496.408 202.617 496.923 197.186C497.188 194.452 496.302 184.133 494.347 166.125C491.863 146.413 490.74 131.338 490.991 120.967C493.475 118.536 494.453 112.71 493.99 103.567V97.6876V97.6876Z" fill="black" fill-opacity="0.1451"/>
<path fill-rule="evenodd" clip-rule="evenodd" d="M493.99 97.6876C495.483 92.7332 498.06 89.5359 501.732 88.0429C510.346 107.544 519.119 122.922 527.997 134.285C535.633 144.141 543.269 156.983 550.958 172.784C558.806 189.55 563.654 203.33 565.359 214.217C569.534 241.314 571.396 262.07 570.881 276.365C570.155 299.539 564.011 318.009 552.398 331.842C541.565 344.896 512.566 357.856 465.493 370.698C399.859 388.191 366.724 397.069 365.945 397.334C344.991 405.234 313.931 406.569 272.751 401.403C234.768 396.448 193.945 386.698 150.281 372.152C118.031 361.305 94.3432 344.684 79.2689 322.237C111.109 345.16 139.183 360.221 163.651 367.343C187.537 374.517 211.846 380.198 236.512 384.373C265.366 389.023 290.243 390.781 311.196 389.539C338.597 388.046 372.405 381.638 412.594 370.342C463.128 355.782 486.447 340.826 482.483 325.54C464.212 323.836 450.577 322.7 441.395 322.237C455.492 309.91 473.129 300.147 494.294 292.973C494.083 291.533 490.991 283.381 485.059 268.57C481.136 258.714 479.537 250.087 480.264 242.715C480.779 236.518 483.461 228.882 488.415 219.739C493.568 210.147 496.408 202.617 496.923 197.186C497.188 194.452 496.302 184.133 494.347 166.125C491.863 146.413 490.74 131.338 490.991 120.967C493.475 118.536 494.453 112.71 493.99 103.567V97.6876V97.6876Z" fill="black" fill-opacity="0.2"/>
<path fill-rule="evenodd" clip-rule="evenodd" d="M493.99 97.6876C495.483 92.7332 498.06 89.5359 501.732 88.0429C510.346 107.544 519.119 122.922 527.997 134.285C535.633 144.141 543.269 156.983 550.958 172.784C558.806 189.55 563.654 203.33 565.359 214.217C569.534 241.314 571.396 262.07 570.881 276.365C570.155 299.539 564.011 318.009 552.398 331.842C541.565 344.896 512.566 357.856 465.493 370.698C399.859 388.191 366.724 397.069 365.945 397.334C344.991 405.234 313.931 406.569 272.751 401.403C234.768 396.448 193.945 386.698 150.281 372.152C118.031 361.305 94.3432 344.684 79.2689 322.237C111.109 345.16 139.183 360.221 163.651 367.343C187.537 374.517 211.846 380.198 236.512 384.373C265.366 389.023 290.243 390.781 311.196 389.539C338.597 388.046 372.405 381.638 412.594 370.342C463.128 355.782 486.447 340.826 482.483 325.54C464.212 323.836 450.577 322.7 441.395 322.237C455.492 309.91 473.129 300.147 494.294 292.973C494.083 291.533 490.991 283.381 485.059 268.57C481.136 258.714 479.537 250.087 480.264 242.715C480.779 236.518 483.461 228.882 488.415 219.739C493.568 210.147 496.408 202.617 496.923 197.186C497.188 194.452 496.302 184.133 494.347 166.125C491.863 146.413 490.74 131.338 490.991 120.967C493.475 118.536 494.453 112.71 493.99 103.567V97.6876V97.6876Z" fill="black" fill-opacity="0.2"/>
<path fill-rule="evenodd" clip-rule="evenodd" d="M493.99 97.6876C495.483 92.7332 498.06 89.5359 501.732 88.0429C510.346 107.544 519.119 122.922 527.997 134.285C535.633 144.141 543.269 156.983 550.958 172.784C558.806 189.55 563.654 203.33 565.359 214.217C569.534 241.314 571.396 262.07 570.881 276.365C570.155 299.539 564.011 318.009 552.398 331.842C541.565 344.896 512.566 357.856 465.493 370.698C399.859 388.191 366.724 397.069 365.945 397.334C344.991 405.234 313.931 406.569 272.751 401.403C234.768 396.448 193.945 386.698 150.281 372.152C118.031 361.305 94.3432 344.684 79.2689 322.237C111.109 345.16 139.183 360.221 163.651 367.343C187.537 374.517 211.846 380.198 236.512 384.373C265.366 389.023 290.243 390.781 311.196 389.539C338.597 388.046 372.405 381.638 412.594 370.342C463.128 355.782 486.447 340.826 482.483 325.54C464.212 323.836 450.577 322.7 441.395 322.237C455.492 309.91 473.129 300.147 494.294 292.973C494.083 291.533 490.991 283.381 485.059 268.57C481.136 258.714 479.537 250.087 480.264 242.715C480.779 236.518 483.461 228.882 488.415 219.739C493.568 210.147 496.408 202.617 496.923 197.186C497.188 194.452 496.302 184.133 494.347 166.125C491.863 146.413 490.74 131.338 490.991 120.967C493.475 118.536 494.453 112.71 493.99 103.567V97.6876V97.6876Z" fill="black" fill-opacity="0.2"/>
<path fill-rule="evenodd" clip-rule="evenodd" d="M215.413 60.3265L215.822 60.6832L211.383 48.8189L213.193 46.2426L220.261 61.7666H219.852C217.17 66.9853 217.685 73.0231 221.345 79.8933C217.883 79.6819 213.603 78.7967 208.384 77.3038C202.717 75.5994 198.436 74.3707 195.437 73.6441L202.096 63.6294C208.028 66.8267 212.467 68.3329 215.413 68.0686C218.61 67.8044 218.61 65.2281 215.413 60.3265V60.3265Z" fill="black" fill-opacity="0.1451"/>
<path fill-rule="evenodd" clip-rule="evenodd" d="M209.52 37.364L210.973 41.4333L209.52 41.0766L208.384 41.8032L209.52 37.364Z" fill="black" fill-opacity="0.1451"/>
<path fill-rule="evenodd" clip-rule="evenodd" d="M215.413 60.3263C218.61 65.228 218.61 67.8043 215.413 68.0685C212.467 68.3328 208.028 66.8266 202.096 63.6293L203.232 61.7664C207.156 59.8111 211.225 59.3487 215.413 60.3263Z" fill="black" fill-opacity="0.1451"/>
<path fill-rule="evenodd" clip-rule="evenodd" d="M215.413 60.3263C218.61 65.228 218.61 67.8043 215.413 68.0685C212.467 68.3328 208.028 66.8266 202.096 63.6293L203.232 61.7664C207.156 59.8111 211.225 59.3487 215.413 60.3263Z" fill="black" fill-opacity="0.2"/>
<path fill-rule="evenodd" clip-rule="evenodd" d="M221.345 79.8932L225.784 80.3027C225.52 74.6216 223.67 68.4252 220.209 61.7664H221.702C228.36 61.7664 233.684 62.6516 237.595 64.4088C237.595 67.6061 237.502 72.402 237.238 78.7966C237.238 84.2267 237.753 88.9169 238.731 92.8937L240.184 97.6896L239.101 100.266L241.677 100.636C243.434 103.569 245.39 105.075 247.609 105.075L238.731 116.886C238.216 115.446 237.965 112.963 237.965 109.514C237.965 106.053 237.595 103.476 236.882 101.772C233.156 96.8176 230.474 93.1051 228.717 90.6741C225.321 86.2349 222.838 82.628 221.345 79.8932V79.8932Z" fill="black" fill-opacity="0.4"/>
<path fill-rule="evenodd" clip-rule="evenodd" d="M238.732 92.8406C237.754 88.9166 237.239 84.2264 237.239 78.7963C237.503 72.4018 237.648 67.553 237.648 64.3557L241.321 65.8486C246.011 68.5835 249.314 69.6669 251.322 69.1516C248.852 77.8186 245.139 87.318 240.238 97.6365L238.732 92.8406Z" fill="black" fill-opacity="0.1451"/>
<path fill-rule="evenodd" clip-rule="evenodd" d="M238.732 92.8406C237.754 88.9166 237.239 84.2264 237.239 78.7963C237.503 72.4018 237.648 67.553 237.648 64.3557L241.321 65.8486C246.011 68.5835 249.314 69.6669 251.322 69.1516C248.852 77.8186 245.139 87.318 240.238 97.6365L238.732 92.8406Z" fill="black" fill-opacity="0.4"/>
<path fill-rule="evenodd" clip-rule="evenodd" d="M241.677 100.634C245.654 100.37 249.578 98.6657 253.541 95.4685L247.609 105.073C245.39 105.073 243.434 103.567 241.677 100.634V100.634Z" fill="black" fill-opacity="0.1451"/>
<path fill-rule="evenodd" clip-rule="evenodd" d="M241.677 100.634C245.654 100.37 249.578 98.6657 253.541 95.4685L247.609 105.073C245.39 105.073 243.434 103.567 241.677 100.634V100.634Z" fill="black" fill-opacity="0.4"/>
<path fill-rule="evenodd" clip-rule="evenodd" d="M239.101 100.265L240.237 97.6887L241.677 100.635L239.101 100.265Z" fill="black" fill-opacity="0.2"/>
<path fill-rule="evenodd" clip-rule="evenodd" d="M239.101 100.265L240.237 97.6887L241.677 100.635L239.101 100.265Z" fill="black" fill-opacity="0.4"/>
<path fill-rule="evenodd" clip-rule="evenodd" d="M241.677 100.635L240.237 97.6887C245.139 87.3174 248.851 77.8181 251.322 69.2039C253.026 68.6886 254.625 67.1957 256.131 64.7647C260.821 72.6654 259.949 82.8782 253.541 95.4691C249.578 98.6664 245.654 100.371 241.677 100.635V100.635Z" fill="black" fill-opacity="0.1451"/>
<path fill-rule="evenodd" clip-rule="evenodd" d="M241.677 100.635L240.237 97.6887C245.139 87.3174 248.851 77.8181 251.322 69.2039C253.026 68.6886 254.625 67.1957 256.131 64.7647C260.821 72.6654 259.949 82.8782 253.541 95.4691C249.578 98.6664 245.654 100.371 241.677 100.635V100.635Z" fill="black" fill-opacity="0.2"/>
<path fill-rule="evenodd" clip-rule="evenodd" d="M241.677 100.635L240.237 97.6887C245.139 87.3174 248.851 77.8181 251.322 69.2039C253.026 68.6886 254.625 67.1957 256.131 64.7647C260.821 72.6654 259.949 82.8782 253.541 95.4691C249.578 98.6664 245.654 100.371 241.677 100.635V100.635Z" fill="black" fill-opacity="0.4"/>
<path fill-rule="evenodd" clip-rule="evenodd" d="M221.345 79.8915C217.632 73.0213 217.17 66.9834 219.852 61.7647H220.209C223.67 68.4235 225.52 74.6199 225.784 80.301L221.345 79.8915V79.8915Z" fill="black" fill-opacity="0.1451"/>
<path fill-rule="evenodd" clip-rule="evenodd" d="M221.345 79.8915C217.632 73.0213 217.17 66.9834 219.852 61.7647H220.209C223.67 68.4235 225.52 74.6199 225.784 80.301L221.345 79.8915V79.8915Z" fill="black" fill-opacity="0.4"/>
<path fill-rule="evenodd" clip-rule="evenodd" d="M284.258 103.567C288.896 103.369 294.114 104.188 299.782 106.209C301.75 106.672 306.81 108.68 314.962 112.142C315.424 117.559 315.689 126.173 315.689 137.997L306.81 135.778C299.425 134.285 292.608 131.339 286.425 126.899C281.524 123.438 275.843 118.021 269.448 110.649L284.258 103.567Z" fill="black" fill-opacity="0.4"/>
<path fill-rule="evenodd" clip-rule="evenodd" d="M325.636 147.604C332.559 145.636 338.847 137.735 344.528 123.915C343.551 136.044 340.816 145.53 336.377 152.4C333.695 155.862 330.339 158.227 326.415 159.468L324.922 159.825C326.164 154.408 326.415 150.339 325.636 147.604V147.604Z" fill="black" fill-opacity="0.1451"/>
<path fill-rule="evenodd" clip-rule="evenodd" d="M325.636 147.604C332.559 145.636 338.847 137.735 344.528 123.915C343.551 136.044 340.816 145.53 336.377 152.4C333.695 155.862 330.339 158.227 326.415 159.468L324.922 159.825C326.164 154.408 326.415 150.339 325.636 147.604V147.604Z" fill="black" fill-opacity="0.4"/>
<path fill-rule="evenodd" clip-rule="evenodd" d="M323.061 142.08C321.568 140.573 319.137 139.239 315.689 137.997C315.689 126.133 315.425 117.505 314.962 112.089L320.115 113.951C325.28 115.907 328.477 117.043 329.719 117.254L323.061 142.08Z" fill="black" fill-opacity="0.1451"/>
<path fill-rule="evenodd" clip-rule="evenodd" d="M323.061 142.08C321.568 140.573 319.137 139.239 315.689 137.997C315.689 126.133 315.425 117.505 314.962 112.089L320.115 113.951C325.28 115.907 328.477 117.043 329.719 117.254L323.061 142.08Z" fill="black" fill-opacity="0.4"/>
<path fill-rule="evenodd" clip-rule="evenodd" d="M325.637 147.604C325.174 145.173 324.302 143.31 323.061 142.082L329.719 117.257C336.629 118.749 341.583 117.045 344.529 112.091V123.915C338.848 137.735 332.56 145.636 325.637 147.604V147.604Z" fill="black" fill-opacity="0.1451"/>
<path fill-rule="evenodd" clip-rule="evenodd" d="M325.637 147.604C325.174 145.173 324.302 143.31 323.061 142.082L329.719 117.257C336.629 118.749 341.583 117.045 344.529 112.091V123.915C338.848 137.735 332.56 145.636 325.637 147.604V147.604Z" fill="black" fill-opacity="0.2"/>
<path fill-rule="evenodd" clip-rule="evenodd" d="M325.637 147.604C325.174 145.173 324.302 143.31 323.061 142.082L329.719 117.257C336.629 118.749 341.583 117.045 344.529 112.091V123.915C338.848 137.735 332.56 145.636 325.637 147.604V147.604Z" fill="black" fill-opacity="0.4"/>
<path fill-rule="evenodd" clip-rule="evenodd" d="M407.389 116.528C399.026 128.868 389.527 135.421 378.905 136.134L379.314 137.997C374.611 137.271 370.7 136.134 367.437 134.694C366.975 133.915 367.239 133.294 368.217 132.831L377.451 122.83C378.178 122.354 381.375 121.733 387.056 120.967C392.01 120.241 398.299 118.748 405.949 116.528H407.389V116.528Z" fill="black" fill-opacity="0.4"/>
<path fill-rule="evenodd" clip-rule="evenodd" d="M419.253 139.861C412.594 140.574 408.525 140.944 407.032 140.944C391.746 139.702 382.512 138.725 379.314 137.998L378.905 136.135C389.527 135.422 399.026 128.869 407.389 116.529C409.397 116.264 412.964 116.172 418.117 116.172C422.608 116.423 426.017 116.172 428.501 115.445C429.214 115.181 430.456 114.309 432.213 112.816C433.402 111.574 434.789 111.218 436.282 111.733C437.471 112.248 438.502 112.962 439.228 113.952C423.441 118.127 412.502 125.407 406.306 135.778C412.7 137.271 420.336 137.589 429.214 136.862C430.456 138.104 431.236 139.081 431.434 139.861C429.016 139.346 424.934 139.346 419.253 139.861V139.861Z" fill="black" fill-opacity="0.1451"/>
<path fill-rule="evenodd" clip-rule="evenodd" d="M419.253 139.861C412.594 140.574 408.525 140.944 407.032 140.944C391.746 139.702 382.512 138.725 379.314 137.998L378.905 136.135C389.527 135.422 399.026 128.869 407.389 116.529C409.397 116.264 412.964 116.172 418.117 116.172C422.608 116.423 426.017 116.172 428.501 115.445C429.214 115.181 430.456 114.309 432.213 112.816C433.402 111.574 434.789 111.218 436.282 111.733C437.471 112.248 438.502 112.962 439.228 113.952C423.441 118.127 412.502 125.407 406.306 135.778C412.7 137.271 420.336 137.589 429.214 136.862C430.456 138.104 431.236 139.081 431.434 139.861C429.016 139.346 424.934 139.346 419.253 139.861V139.861Z" fill="black" fill-opacity="0.4"/>
<path fill-rule="evenodd" clip-rule="evenodd" d="M431.434 139.861C431.236 139.134 430.456 138.157 429.214 136.915L436.652 136.135L435.16 141.711L431.434 139.861V139.861Z" fill="black" fill-opacity="0.1451"/>
<path fill-rule="evenodd" clip-rule="evenodd" d="M431.434 139.861C431.236 139.134 430.456 138.157 429.214 136.915L436.652 136.135L435.16 141.711L431.434 139.861V139.861Z" fill="black" fill-opacity="0.2"/>
<path fill-rule="evenodd" clip-rule="evenodd" d="M431.434 139.861C431.236 139.134 430.456 138.157 429.214 136.915L436.652 136.135L435.16 141.711L431.434 139.861V139.861Z" fill="black" fill-opacity="0.4"/>
<path fill-rule="evenodd" clip-rule="evenodd" d="M406.306 135.778C412.502 125.407 423.441 118.127 439.229 113.952C440.722 116.423 440.827 120.611 439.585 126.543C434.631 128.961 428.131 131.802 419.98 135.052C423.441 134.286 426.533 134.907 429.214 136.915C420.336 137.641 412.7 137.271 406.306 135.778V135.778Z" fill="black" fill-opacity="0.1451"/>
<path fill-rule="evenodd" clip-rule="evenodd" d="M406.306 135.778C412.502 125.407 423.441 118.127 439.229 113.952C440.722 116.423 440.827 120.611 439.585 126.543C434.631 128.961 428.131 131.802 419.98 135.052C423.441 134.286 426.533 134.907 429.214 136.915C420.336 137.641 412.7 137.271 406.306 135.778V135.778Z" fill="black" fill-opacity="0.2"/>
<path fill-rule="evenodd" clip-rule="evenodd" d="M406.306 135.778C412.502 125.407 423.441 118.127 439.229 113.952C440.722 116.423 440.827 120.611 439.585 126.543C434.631 128.961 428.131 131.802 419.98 135.052C423.441 134.286 426.533 134.907 429.214 136.915C420.336 137.641 412.7 137.271 406.306 135.778V135.778Z" fill="black" fill-opacity="0.4"/>
<path fill-rule="evenodd" clip-rule="evenodd" d="M429.214 136.862C426.532 134.906 423.441 134.286 419.979 135.052C428.131 131.802 434.684 128.961 439.585 126.49L436.652 136.135L429.214 136.862V136.862Z" fill="black" fill-opacity="0.1451"/>
<path fill-rule="evenodd" clip-rule="evenodd" d="M429.214 136.862C426.532 134.906 423.441 134.286 419.979 135.052C428.131 131.802 434.684 128.961 439.585 126.49L436.652 136.135L429.214 136.862V136.862Z" fill="black" fill-opacity="0.2"/>
<path fill-rule="evenodd" clip-rule="evenodd" d="M429.214 136.862C426.532 134.906 423.441 134.286 419.979 135.052C428.131 131.802 434.684 128.961 439.585 126.49L436.652 136.135L429.214 136.862V136.862Z" fill="black" fill-opacity="0.2"/>
<path fill-rule="evenodd" clip-rule="evenodd" d="M429.214 136.862C426.532 134.906 423.441 134.286 419.979 135.052C428.131 131.802 434.684 128.961 439.585 126.49L436.652 136.135L429.214 136.862V136.862Z" fill="black" fill-opacity="0.4"/>
<path fill-rule="evenodd" clip-rule="evenodd" d="M472.521 127.257H470.302L473.287 125.817L472.521 127.257Z" fill="black" fill-opacity="0.1451"/>
<path fill-rule="evenodd" clip-rule="evenodd" d="M472.521 127.257H470.302L473.287 125.817L472.521 127.257Z" fill="black" fill-opacity="0.2"/>
<path fill-rule="evenodd" clip-rule="evenodd" d="M472.521 127.257H470.302L473.287 125.817L472.521 127.257Z" fill="black" fill-opacity="0.4"/>
<path fill-rule="evenodd" clip-rule="evenodd" d="M472.521 127.257L473.235 125.764L470.302 127.257C466.114 127.257 464.106 125.764 464.357 122.831L462.507 112.817C462.296 109.619 465.083 104.559 471.015 97.6891C476.696 91.0303 481.294 87.4235 484.702 86.961C490.37 86.4458 493.475 89.9997 493.99 97.6891C491.969 103.37 490.991 111.112 490.991 120.968L488.772 122.831C484.385 125.566 478.916 127.006 472.521 127.257V127.257Z" fill="black" fill-opacity="0.1451"/>
<path fill-rule="evenodd" clip-rule="evenodd" d="M472.521 127.257L473.235 125.764L470.302 127.257C466.114 127.257 464.106 125.764 464.357 122.831L462.507 112.817C462.296 109.619 465.083 104.559 471.015 97.6891C476.696 91.0303 481.294 87.4235 484.702 86.961C490.37 86.4458 493.475 89.9997 493.99 97.6891C491.969 103.37 490.991 111.112 490.991 120.968L488.772 122.831C484.385 125.566 478.916 127.006 472.521 127.257V127.257Z" fill="black" fill-opacity="0.2"/>
<path fill-rule="evenodd" clip-rule="evenodd" d="M472.521 127.257L473.235 125.764L470.302 127.257C466.114 127.257 464.106 125.764 464.357 122.831L462.507 112.817C462.296 109.619 465.083 104.559 471.015 97.6891C476.696 91.0303 481.294 87.4235 484.702 86.961C490.37 86.4458 493.475 89.9997 493.99 97.6891C491.969 103.37 490.991 111.112 490.991 120.968L488.772 122.831C484.385 125.566 478.916 127.006 472.521 127.257V127.257Z" fill="black" fill-opacity="0.2"/>
<path fill-rule="evenodd" clip-rule="evenodd" d="M472.521 127.257L473.235 125.764L470.302 127.257C466.114 127.257 464.106 125.764 464.357 122.831L462.507 112.817C462.296 109.619 465.083 104.559 471.015 97.6891C476.696 91.0303 481.294 87.4235 484.702 86.961C490.37 86.4458 493.475 89.9997 493.99 97.6891C491.969 103.37 490.991 111.112 490.991 120.968L488.772 122.831C484.385 125.566 478.916 127.006 472.521 127.257V127.257Z" fill="black" fill-opacity="0.4"/>
<path fill-rule="evenodd" clip-rule="evenodd" d="M493.99 103.569C494.452 112.711 493.475 118.538 491.044 120.969C491.044 111.113 492.021 103.37 493.99 97.6894V103.569Z" fill="black" fill-opacity="0.1451"/>
<path fill-rule="evenodd" clip-rule="evenodd" d="M493.99 103.569C494.452 112.711 493.475 118.538 491.044 120.969C491.044 111.113 492.021 103.37 493.99 97.6894V103.569Z" fill="black" fill-opacity="0.2"/>
<path fill-rule="evenodd" clip-rule="evenodd" d="M493.99 103.569C494.452 112.711 493.475 118.538 491.044 120.969C491.044 111.113 492.021 103.37 493.99 97.6894V103.569Z" fill="black" fill-opacity="0.2"/>
<path fill-rule="evenodd" clip-rule="evenodd" d="M493.99 103.569C494.452 112.711 493.475 118.538 491.044 120.969C491.044 111.113 492.021 103.37 493.99 97.6894V103.569Z" fill="black" fill-opacity="0.2"/>
<path fill-rule="evenodd" clip-rule="evenodd" d="M493.99 103.569C494.452 112.711 493.475 118.538 491.044 120.969C491.044 111.113 492.021 103.37 493.99 97.6894V103.569Z" fill="black" fill-opacity="0.4"/>
<path fill-rule="evenodd" clip-rule="evenodd" d="M99.2975 164.262C101.517 160.55 106.564 156.11 114.464 150.945C101.874 170.67 93.9733 183.618 90.7761 189.761L92.9957 181.609C95.2152 172.784 97.2762 166.944 99.2975 164.262Z" fill="black" fill-opacity="0.2"/>
<path fill-rule="evenodd" clip-rule="evenodd" d="M217.632 42.1592L213.193 46.2417L210.974 41.4326L217.632 42.1592V42.1592Z" fill="black" fill-opacity="0.2"/>
<path fill-rule="evenodd" clip-rule="evenodd" d="M180.271 84.7417L190.998 72.1508L195.437 73.6437L184.696 89.1809C183.521 91.4005 181.301 94.8488 178.051 99.4994C175.832 103.476 174.841 107.189 175.105 110.597C175.62 114.574 178.051 118.485 182.53 122.462C187.695 126.901 190.787 130.204 191.778 132.423C189.809 132.423 184.749 131.34 176.598 129.121C170.203 127.363 165.143 127.165 161.431 128.394C159.925 128.869 155.644 132.212 148.471 138.356C143.569 142.544 137.016 149.969 128.865 160.552C123.184 166.748 119.881 170.672 118.903 172.376C114.676 179.801 115.085 187.596 119.987 195.695C121.942 199.157 126.804 203.332 134.44 208.286L143.318 212.725L148.114 217.165C143.411 218.618 135.259 218.248 123.699 216.081C113.328 214.324 105.956 214.588 101.517 216.808L100.738 215.672C107.396 209.74 113.685 208.035 119.63 210.506C114.464 205.089 110.858 201.376 108.889 199.408C106.207 195.96 104.82 191.15 104.82 184.967C105.071 178.308 107.911 171.438 113.328 164.264C119.722 155.65 123.699 149.097 125.205 144.658L119.63 146.877L121.48 145.794C126.381 140.113 130.107 135.938 132.577 133.203C138.985 125.818 143.675 117.666 146.621 108.787L152.91 93.6201L151.826 98.7728C151.575 100.53 150.743 104.348 149.25 110.227C148.008 116.173 148.114 119.991 149.607 121.735C150.849 123.439 153.795 124.681 158.485 125.408L168.499 126.135C162.818 119.991 161.788 112.711 165.5 104.348C167.72 99.3937 172.621 92.8406 180.271 84.7417V84.7417Z" fill="black" fill-opacity="0.2"/>
<path fill-rule="evenodd" clip-rule="evenodd" d="M80.4048 219.028L79.6782 222.331C77.4587 236.877 75.3448 246.641 73.3895 251.542V250.459C73.3895 241.831 75.7015 231.354 80.4048 219.028Z" fill="black" fill-opacity="0.1451"/>
<path fill-rule="evenodd" clip-rule="evenodd" d="M80.4048 219.028L79.6782 222.331C77.4587 236.877 75.3448 246.641 73.3895 251.542V250.459C73.3895 241.831 75.7015 231.354 80.4048 219.028Z" fill="black" fill-opacity="0.2"/>
<path fill-rule="evenodd" clip-rule="evenodd" d="M101.516 216.806C97.0774 219.277 93.867 223.822 91.8589 230.481C91.6607 231.458 90.617 238.011 88.9127 250.087C87.4198 259.943 85.2003 266.866 82.2673 270.79L80.7612 268.927C79.5326 260.564 79.7836 252.769 81.5407 245.648C82.5183 241.209 84.7379 236.162 88.1993 230.481C91.8589 224.284 96.0865 219.383 100.737 215.67L101.516 216.806Z" fill="black" fill-opacity="0.1451"/>
<path fill-rule="evenodd" clip-rule="evenodd" d="M101.516 216.806C97.0774 219.277 93.867 223.822 91.8589 230.481C91.6607 231.458 90.617 238.011 88.9127 250.087C87.4198 259.943 85.2003 266.866 82.2673 270.79L80.7612 268.927C79.5326 260.564 79.7836 252.769 81.5407 245.648C82.5183 241.209 84.7379 236.162 88.1993 230.481C91.8589 224.284 96.0865 219.383 100.737 215.67L101.516 216.806Z" fill="black" fill-opacity="0.2"/>
<path fill-rule="evenodd" clip-rule="evenodd" d="M81.1316 272.284L80.7617 268.928L82.2678 270.791L81.1316 272.284Z" fill="black" fill-opacity="0.1451"/>
<path fill-rule="evenodd" clip-rule="evenodd" d="M81.1316 272.284L80.7617 268.928L82.2678 270.791L81.1316 272.284Z" fill="black" fill-opacity="0.2"/>
<path fill-rule="evenodd" clip-rule="evenodd" d="M81.1316 272.284L80.7617 268.928L82.2678 270.791L81.1316 272.284Z" fill="black" fill-opacity="0.2"/>
<path fill-rule="evenodd" clip-rule="evenodd" d="M202.096 63.6289L195.438 73.6436L190.999 72.1506C194.711 68.1738 197.908 65.2276 200.656 63.2722L202.096 63.6289Z" fill="black" fill-opacity="0.1451"/>
<path fill-rule="evenodd" clip-rule="evenodd" d="M202.096 63.6289L195.438 73.6436L190.999 72.1506C194.711 68.1738 197.908 65.2276 200.656 63.2722L202.096 63.6289Z" fill="black" fill-opacity="0.2"/>
<path fill-rule="evenodd" clip-rule="evenodd" d="M208.385 41.8016L209.521 41.075L210.974 41.4317L213.194 46.2408L211.331 48.8171L209.521 44.0212L207.302 44.3779L208.385 41.8016V41.8016Z" fill="black" fill-opacity="0.1451"/>
<path fill-rule="evenodd" clip-rule="evenodd" d="M208.385 41.8016L209.521 41.075L210.974 41.4317L213.194 46.2408L211.331 48.8171L209.521 44.0212L207.302 44.3779L208.385 41.8016V41.8016Z" fill="black" fill-opacity="0.2"/>
<path fill-rule="evenodd" clip-rule="evenodd" d="M203.232 61.7658L202.096 63.6287L200.656 63.2719L203.232 61.7658V61.7658Z" fill="black" fill-opacity="0.1451"/>
<path fill-rule="evenodd" clip-rule="evenodd" d="M203.232 61.7658L202.096 63.6287L200.656 63.2719L203.232 61.7658V61.7658Z" fill="black" fill-opacity="0.2"/>
<path fill-rule="evenodd" clip-rule="evenodd" d="M203.232 61.7658L202.096 63.6287L200.656 63.2719L203.232 61.7658V61.7658Z" fill="black" fill-opacity="0.2"/>
<path fill-rule="evenodd" clip-rule="evenodd" d="M152.91 93.6189C153.637 90.4084 155.024 86.8016 156.992 82.8776L157.349 82.5209L158.842 81.3847L152.91 93.6189V93.6189Z" fill="black" fill-opacity="0.2"/>
<path fill-rule="evenodd" clip-rule="evenodd" d="M211.331 48.8176L215.77 60.6819L215.413 60.3252L208.754 52.1734L211.331 48.8176V48.8176Z" fill="black" fill-opacity="0.1451"/>
<path fill-rule="evenodd" clip-rule="evenodd" d="M211.331 48.8176L215.77 60.6819L215.413 60.3252L208.754 52.1734L211.331 48.8176V48.8176Z" fill="black" fill-opacity="0.2"/>
<path fill-rule="evenodd" clip-rule="evenodd" d="M208.755 52.1738L215.413 60.3255C211.225 59.3479 207.156 59.8103 203.232 61.7656L208.755 52.1738V52.1738Z" fill="black" fill-opacity="0.1451"/>
<path fill-rule="evenodd" clip-rule="evenodd" d="M208.755 52.1738L215.413 60.3255C211.225 59.3479 207.156 59.8103 203.232 61.7656L208.755 52.1738V52.1738Z" fill="black" fill-opacity="0.2"/>
<path fill-rule="evenodd" clip-rule="evenodd" d="M208.755 52.1738L215.413 60.3255C211.225 59.3479 207.156 59.8103 203.232 61.7656L208.755 52.1738V52.1738Z" fill="black" fill-opacity="0.2"/>
<path fill-rule="evenodd" clip-rule="evenodd" d="M152.91 93.6203L158.842 81.386L172.885 71.0675L181.037 70.6448L191.051 72.1509L180.31 84.7419C172.621 92.8936 167.72 99.3939 165.5 104.348C161.788 112.711 162.765 119.991 168.446 126.135L158.485 125.408C153.795 124.681 150.849 123.44 149.607 121.735C148.114 119.991 148.008 116.173 149.25 110.228C150.69 104.348 151.575 100.53 151.826 98.7729L152.91 93.6203V93.6203Z" fill="black" fill-opacity="0.2"/>
<path fill-rule="evenodd" clip-rule="evenodd" d="M152.91 93.6203L158.842 81.386L172.885 71.0675L181.037 70.6448L191.051 72.1509L180.31 84.7419C172.621 92.8936 167.72 99.3939 165.5 104.348C161.788 112.711 162.765 119.991 168.446 126.135L158.485 125.408C153.795 124.681 150.849 123.44 149.607 121.735C148.114 119.991 148.008 116.173 149.25 110.228C150.69 104.348 151.575 100.53 151.826 98.7729L152.91 93.6203V93.6203Z" fill="black" fill-opacity="0.2"/>
<path fill-rule="evenodd" clip-rule="evenodd" d="M206.945 45.872L207.302 44.379L209.521 44.0223L211.331 48.8183L208.755 52.1741L204.316 47.7349L206.945 45.872V45.872Z" fill="black" fill-opacity="0.1451"/>
<path fill-rule="evenodd" clip-rule="evenodd" d="M206.945 45.872L207.302 44.379L209.521 44.0223L211.331 48.8183L208.755 52.1741L204.316 47.7349L206.945 45.872V45.872Z" fill="black" fill-opacity="0.2"/>
<path fill-rule="evenodd" clip-rule="evenodd" d="M206.945 45.872L207.302 44.379L209.521 44.0223L211.331 48.8183L208.755 52.1741L204.316 47.7349L206.945 45.872V45.872Z" fill="black" fill-opacity="0.2"/>
<path fill-rule="evenodd" clip-rule="evenodd" d="M190.999 72.1494L181.037 70.6433L172.886 71.0132L191.725 57.3257L200.656 63.271C197.908 65.2264 194.711 68.2255 190.999 72.1494V72.1494Z" fill="black" fill-opacity="0.1451"/>
<path fill-rule="evenodd" clip-rule="evenodd" d="M190.999 72.1494L181.037 70.6433L172.886 71.0132L191.725 57.3257L200.656 63.271C197.908 65.2264 194.711 68.2255 190.999 72.1494V72.1494Z" fill="black" fill-opacity="0.2"/>
<path fill-rule="evenodd" clip-rule="evenodd" d="M190.999 72.1494L181.037 70.6433L172.886 71.0132L191.725 57.3257L200.656 63.271C197.908 65.2264 194.711 68.2255 190.999 72.1494V72.1494Z" fill="black" fill-opacity="0.2"/>
<path fill-rule="evenodd" clip-rule="evenodd" d="M204.316 47.7353L208.755 52.1745L203.232 61.7663L200.656 63.2725L191.778 57.3271L204.316 47.7353Z" fill="black" fill-opacity="0.1451"/>
<path fill-rule="evenodd" clip-rule="evenodd" d="M204.316 47.7353L208.755 52.1745L203.232 61.7663L200.656 63.2725L191.778 57.3271L204.316 47.7353Z" fill="black" fill-opacity="0.2"/>
<path fill-rule="evenodd" clip-rule="evenodd" d="M204.316 47.7353L208.755 52.1745L203.232 61.7663L200.656 63.2725L191.778 57.3271L204.316 47.7353Z" fill="black" fill-opacity="0.2"/>
<path fill-rule="evenodd" clip-rule="evenodd" d="M204.316 47.7353L208.755 52.1745L203.232 61.7663L200.656 63.2725L191.778 57.3271L204.316 47.7353Z" fill="black" fill-opacity="0.2"/>
<path fill-rule="evenodd" clip-rule="evenodd" d="M115.904 148.37L119.63 146.877L114.464 150.946L115.904 148.37Z" fill="black" fill-opacity="0.2"/>
<path fill-rule="evenodd" clip-rule="evenodd" d="M73.3899 251.95V259.335L71.1704 256.746L73.3899 251.95Z" fill="black" fill-opacity="0.1451"/>
<path fill-rule="evenodd" clip-rule="evenodd" d="M73.3899 251.95V259.335L71.1704 256.746L73.3899 251.95Z" fill="black" fill-opacity="0.2"/>
<path fill-rule="evenodd" clip-rule="evenodd" d="M88.2003 197.557L80.4055 219.026C81.8984 211.588 84.3822 204.11 87.7907 196.421L88.2003 197.557Z" fill="black" fill-opacity="0.1451"/>
<path fill-rule="evenodd" clip-rule="evenodd" d="M88.2003 197.557L80.4055 219.026C81.8984 211.588 84.3822 204.11 87.7907 196.421L88.2003 197.557Z" fill="black" fill-opacity="0.2"/>
<path fill-rule="evenodd" clip-rule="evenodd" d="M73.3896 259.337C72.8744 265.982 73.0197 271.769 73.7463 276.724C76.9435 275.997 79.4273 274.504 81.1316 272.285C82.6244 280.436 86.9578 293.754 94.0788 312.224C90.155 311.246 86.0859 308.67 81.8978 304.495C77.2077 299.012 73.7463 295.194 71.5268 292.974C66.3611 287.822 64.5115 280.436 66.0044 270.792C66.4668 268.823 68.2239 264.133 71.1701 256.747L73.3896 259.337V259.337Z" fill="black" fill-opacity="0.1451"/>
<path fill-rule="evenodd" clip-rule="evenodd" d="M73.3896 259.337C72.8744 265.982 73.0197 271.769 73.7463 276.724C76.9435 275.997 79.4273 274.504 81.1316 272.285C82.6244 280.436 86.9578 293.754 94.0788 312.224C90.155 311.246 86.0859 308.67 81.8978 304.495C77.2077 299.012 73.7463 295.194 71.5268 292.974C66.3611 287.822 64.5115 280.436 66.0044 270.792C66.4668 268.823 68.2239 264.133 71.1701 256.747L73.3896 259.337V259.337Z" fill="black" fill-opacity="0.2"/>
<path fill-rule="evenodd" clip-rule="evenodd" d="M73.3896 259.337C72.8744 265.982 73.0197 271.769 73.7463 276.724C76.9435 275.997 79.4273 274.504 81.1316 272.285C82.6244 280.436 86.9578 293.754 94.0788 312.224C90.155 311.246 86.0859 308.67 81.8978 304.495C77.2077 299.012 73.7463 295.194 71.5268 292.974C66.3611 287.822 64.5115 280.436 66.0044 270.792C66.4668 268.823 68.2239 264.133 71.1701 256.747L73.3896 259.337V259.337Z" fill="black" fill-opacity="0.2"/>
<path fill-rule="evenodd" clip-rule="evenodd" d="M114.464 150.946L119.63 146.877L125.152 144.657C123.699 149.097 119.722 155.65 113.328 164.264C107.911 171.385 105.071 178.308 104.82 184.967C104.82 191.15 106.154 195.959 108.889 199.408C110.857 201.376 114.411 205.089 119.63 210.506C113.685 208.035 107.396 209.739 100.737 215.671C96.5624 211.483 92.7443 206.172 89.2829 199.777L88.1996 197.558L90.7758 189.763C93.973 183.619 101.873 170.672 114.464 150.946V150.946Z" fill="black" fill-opacity="0.2"/>
<path fill-rule="evenodd" clip-rule="evenodd" d="M114.464 150.946L119.63 146.877L125.152 144.657C123.699 149.097 119.722 155.65 113.328 164.264C107.911 171.385 105.071 178.308 104.82 184.967C104.82 191.15 106.154 195.959 108.889 199.408C110.857 201.376 114.411 205.089 119.63 210.506C113.685 208.035 107.396 209.739 100.737 215.671C96.5624 211.483 92.7443 206.172 89.2829 199.777L88.1996 197.558L90.7758 189.763C93.973 183.619 101.873 170.672 114.464 150.946V150.946Z" fill="black" fill-opacity="0.2"/>
<path fill-rule="evenodd" clip-rule="evenodd" d="M80.4048 219.026L88.1996 197.556L89.2829 199.776C92.7443 206.17 96.5625 211.482 100.737 215.67C96.0472 219.382 91.8592 224.284 88.1467 230.48C84.6853 236.161 82.4658 241.208 81.4882 245.648C79.7839 252.822 79.5329 260.564 80.7615 268.927L73.3895 259.335V251.593C75.3448 246.639 77.4587 236.875 79.6782 222.329L80.4048 219.026V219.026Z" fill="black" fill-opacity="0.1451"/>
<path fill-rule="evenodd" clip-rule="evenodd" d="M80.4048 219.026L88.1996 197.556L89.2829 199.776C92.7443 206.17 96.5625 211.482 100.737 215.67C96.0472 219.382 91.8592 224.284 88.1467 230.48C84.6853 236.161 82.4658 241.208 81.4882 245.648C79.7839 252.822 79.5329 260.564 80.7615 268.927L73.3895 259.335V251.593C75.3448 246.639 77.4587 236.875 79.6782 222.329L80.4048 219.026V219.026Z" fill="black" fill-opacity="0.2"/>
<path fill-rule="evenodd" clip-rule="evenodd" d="M80.4048 219.026L88.1996 197.556L89.2829 199.776C92.7443 206.17 96.5625 211.482 100.737 215.67C96.0472 219.382 91.8592 224.284 88.1467 230.48C84.6853 236.161 82.4658 241.208 81.4882 245.648C79.7839 252.822 79.5329 260.564 80.7615 268.927L73.3895 259.335V251.593C75.3448 246.639 77.4587 236.875 79.6782 222.329L80.4048 219.026V219.026Z" fill="black" fill-opacity="0.2"/>
<path fill-rule="evenodd" clip-rule="evenodd" d="M73.39 259.336L80.762 268.927L81.132 272.283C79.4277 274.503 76.9439 275.996 73.7467 276.722C73.0201 271.768 72.8748 265.981 73.39 259.336V259.336Z" fill="black" fill-opacity="0.1451"/>
<path fill-rule="evenodd" clip-rule="evenodd" d="M73.39 259.336L80.762 268.927L81.132 272.283C79.4277 274.503 76.9439 275.996 73.7467 276.722C73.0201 271.768 72.8748 265.981 73.39 259.336V259.336Z" fill="black" fill-opacity="0.2"/>
<path fill-rule="evenodd" clip-rule="evenodd" d="M73.39 259.336L80.762 268.927L81.132 272.283C79.4277 274.503 76.9439 275.996 73.7467 276.722C73.0201 271.768 72.8748 265.981 73.39 259.336V259.336Z" fill="black" fill-opacity="0.2"/>
<path fill-rule="evenodd" clip-rule="evenodd" d="M73.39 259.336L80.762 268.927L81.132 272.283C79.4277 274.503 76.9439 275.996 73.7467 276.722C73.0201 271.768 72.8748 265.981 73.39 259.336V259.336Z" fill="black" fill-opacity="0.2"/>
<path fill-rule="evenodd" clip-rule="evenodd" d="M293.85 63.9855C301.75 69.4552 308.66 72.7582 314.552 74.0001C321.462 75.4534 329.824 76.2197 339.733 76.2197C345.361 76.4839 353.816 76.4839 365.073 76.2197C363.051 76.2725 352.892 77.7655 334.514 80.6589C321.197 82.6275 311.091 82.3633 304.221 79.8926C300.508 78.7036 296.532 75.5988 292.357 70.6443L282.395 58.8328C271.047 47.9859 260.306 41.8027 250.199 40.3494C263.252 40.3494 271.403 43.2956 274.6 49.2278L278.313 48.0916C280.797 53.046 285.962 58.3176 293.85 63.9855V63.9855Z" fill="white" fill-opacity="0.498"/>
<path fill-rule="evenodd" clip-rule="evenodd" d="M250.965 94.7028L248.746 100.635C242.087 95.2181 235.283 88.665 228.36 81.0153C221.451 73.1278 218.042 67.962 218.042 65.4913C218.042 63.2717 219.377 61.9241 222.072 61.4089C224.542 60.6822 226.141 61.0521 226.92 62.5451C231.359 69.4549 240.594 76.0609 254.625 82.5215C254.889 84.7411 253.647 88.8103 250.965 94.7028V94.7028Z" fill="#C4B050"/>
<path fill-rule="evenodd" clip-rule="evenodd" d="M267.585 112.445C265.101 109.974 265.101 106.156 267.585 100.99C269.805 95.3093 272.645 93.6181 276.093 95.8377C277.547 96.8154 280.797 98.5197 285.698 100.99C289.41 102.748 292.092 104.293 293.85 105.786C297.311 109.05 306.902 112.353 322.703 115.801C336.998 118.747 344.013 120.504 343.802 120.967H344.529L343.802 135.421C342.573 137.64 338.597 138.155 331.938 136.914C321.105 135.421 307.893 131.444 292.357 125.036C279.039 119.619 270.782 115.444 267.585 112.445V112.445Z" fill="#C4B050"/>
<path fill-rule="evenodd" clip-rule="evenodd" d="M438.873 119.105C438.608 121.074 438.503 123.914 438.503 127.627C437.736 130.824 435.675 133.295 432.214 135.052C411.987 136.756 389.792 137.272 365.588 136.505C363.884 134.286 363.369 131.604 364.135 128.34C365.377 123.188 365.998 120.506 365.998 120.242L406.306 119.832C415.184 119.832 426.018 118.59 438.873 116.172V119.105V119.105Z" fill="#93843D"/>
<path fill-rule="evenodd" clip-rule="evenodd" d="M493.211 91.7553C494.968 92.7329 495.219 95.2168 493.99 99.1407C492.484 102.853 490.172 106.672 486.909 110.595C481.756 117.254 474.741 122.724 465.863 126.899L464.357 124.679L461.424 115.801C464.357 111.626 465.757 109.142 465.493 108.429C466.999 107.649 468.954 106.407 471.385 104.703C483.249 94.8468 490.529 90.5133 493.211 91.7553Z" fill="#C4B050"/>
<path fill-rule="evenodd" clip-rule="evenodd" d="M493.211 91.7564C494.968 92.734 495.219 95.2179 493.99 99.1418C492.484 102.854 490.172 106.673 486.909 110.597C482.734 115.802 477.832 120.083 472.152 123.544L471.385 120.968L472.878 118.022C474.886 110.848 479.695 102.484 487.332 92.8397C489.749 91.3996 491.771 91.0297 493.211 91.7564V91.7564Z" fill="#93843D"/>
<path fill-rule="evenodd" clip-rule="evenodd" d="M366.354 129.845L363.778 130.202C365.27 125.763 365.997 122.46 365.997 120.24L406.305 119.883C415.183 119.883 426.017 118.641 438.872 116.171V117.664C428.501 123.345 416.676 127.005 403.359 128.762C396.45 129.475 384.11 129.845 366.354 129.845V129.845Z" fill="#C4B050"/>
<path fill-rule="evenodd" clip-rule="evenodd" d="M272.025 112.446C289.517 120.083 300.971 124.945 306.441 126.9C321.977 131.802 334.515 132.832 344.12 129.846L343.803 135.369C342.574 137.588 338.597 138.104 331.939 136.862C321.105 135.369 307.894 131.445 292.357 125.037C279.04 119.62 270.783 115.445 267.586 112.446C266.344 110.742 265.881 108.628 266.093 106.157C267.321 108.892 269.343 111.006 272.025 112.446V112.446Z" fill="#93843D"/>
<path fill-rule="evenodd" clip-rule="evenodd" d="M219.485 35.714L218.771 37.7222C218.771 39.7304 218.864 41.4348 219.128 42.9409C218.864 43.4033 217.424 43.5619 214.689 43.2976C207.779 43.0334 198.954 50.0621 188.055 64.4103C179.956 75.244 167.828 94.3352 151.829 121.737C147.654 128.871 141.458 136.138 133.306 143.523C121.997 154.41 116.065 160.038 115.55 160.553C106.21 170.925 97.9524 190.544 90.7786 219.386C80.1962 259.801 65.2408 284.362 46.0313 292.976C36.3869 297.415 28.9092 302.74 23.4265 308.883C18.7893 314.353 16.213 319.876 15.6978 325.544C15.1693 332.467 22.9641 341.345 39.016 352.179C58.4765 365.232 86.9605 374.731 124.428 380.664C160.192 386.345 191.622 386.966 218.771 382.526L232.445 380.307C261.088 375.603 282.134 370.187 295.715 364.043C317.897 354.134 339.379 336.998 360.068 312.596C381.788 287.203 397.787 266.605 408.171 250.817C414.565 240.961 423.074 225.78 433.709 205.302L452.192 171.651C460.594 155.599 470.199 140.062 481.032 125.04C490.637 112.713 495.737 106.16 496.212 105.433C503.849 94.5995 509.516 90.517 513.242 93.199C515.462 94.7052 515.818 98.4177 514.325 104.297C513.083 109.251 511.379 113.175 509.16 116.174C509.16 116.426 503.743 124.432 492.857 140.22C480.306 159.206 470.04 176.342 462.14 191.628L456.618 203.082C443.776 227.749 433.194 246.735 424.831 260.105C410.021 283.49 391.749 308.051 370.03 333.695C346.857 360.793 323.789 379.792 300.868 390.678C286.837 397.073 265.263 402.648 236.158 407.299L222.431 409.518C208.136 411.989 189.918 412.61 167.722 411.368C100.383 406.678 53.007 395.223 25.646 377.004C7.38775 364.875 -1.13365 350.739 0.108227 334.422C0.874493 320.906 7.38775 308.051 19.7141 295.975C28.3412 287.361 37.827 280.702 48.198 275.999C53.8789 273.264 59.0446 266.249 63.7347 254.899C66.4695 247.976 69.9309 236.257 74.1057 219.743C78.2937 202.977 81.8476 190.544 84.8466 182.379C89.7481 169.326 95.68 158.955 102.603 151.318C103.832 149.812 109.261 144.818 118.853 136.138C126.489 129.228 132.527 122.569 136.966 116.174C159.676 82.6295 172.624 63.895 175.834 59.9711C189.402 43.1919 202.099 35.1459 213.91 35.9122L214.993 37.3655C217.424 37.6165 218.917 37.0484 219.485 35.714V35.714Z" fill="#C4B050"/>
<path fill-rule="evenodd" clip-rule="evenodd" d="M218.769 37.7196C218.769 39.7278 218.861 41.4322 219.126 42.9383C218.861 43.4008 217.421 43.5593 214.686 43.2951C208.292 43.0308 200.286 48.9762 190.642 61.0519C183.005 70.9079 172.264 87.3171 158.485 110.227L163.281 95.0593C168.711 83.7103 172.938 75.2414 175.871 69.5603C180.786 59.189 185.833 50.9315 191.051 44.7352C198.952 38.6048 206.588 35.6586 213.96 35.8568L215.043 37.3629C216.8 37.3629 218.148 36.8477 219.126 35.8568L218.769 37.7196Z" fill="#93843D"/>
<path fill-rule="evenodd" clip-rule="evenodd" d="M454.768 173.871C459.92 163.024 463.276 155.031 464.729 149.812C471.388 138.978 478.562 128.501 486.198 118.394C492.592 110.229 495.948 105.948 496.212 105.433C503.849 94.5995 509.516 90.517 513.189 93.2518C515.409 94.7052 515.765 98.4177 514.325 104.35C513.083 109.251 511.326 113.228 509.107 116.174C509.107 116.426 503.69 124.432 492.857 140.22C480.306 159.206 470.04 176.342 462.14 191.628L456.618 203.082C443.776 227.749 433.194 246.735 424.831 260.105C410.021 283.49 391.749 308.051 370.03 333.695C346.857 360.793 323.789 379.792 300.868 390.678C286.837 397.073 265.263 402.648 236.158 407.299L222.431 409.518C208.136 411.989 189.918 412.61 167.722 411.368C100.383 406.678 53.007 395.223 25.646 377.004C7.38775 364.875 -1.13365 350.739 0.108227 334.422C0.359245 328.027 2.48629 321.104 6.39689 313.732L7.17637 315.952C6.66112 324.315 8.15402 330.762 11.5626 335.201C23.1755 350.739 33.6522 361.308 43.0455 366.989C60.5375 377.361 87.6871 384.64 124.428 388.815C170.312 393.981 210.871 393.624 246.119 387.732C287.299 380.822 318.267 366.989 338.956 346.299C361.151 324.103 379.264 303.255 393.348 283.741C407.392 264.544 421.33 240.961 435.162 213.097C444.754 193.847 451.307 180.781 454.768 173.871V173.871Z" fill="#A09047"/>
<path fill-rule="evenodd" clip-rule="evenodd" d="M167.72 411.365C100.381 406.675 53.0577 395.22 25.6439 376.948C14.3481 369.312 6.65904 360.79 2.73523 351.449C13.8329 358.835 24.772 365.388 35.6582 371.069C38.6044 373.024 42.4225 375.138 47.1126 377.358C57.695 382.775 67.0883 387.069 75.2398 390.266C77.2083 391.032 79.0579 391.296 80.7622 391.032C116.79 404.812 154.509 410.599 193.998 408.432C239.353 405.235 274.865 399.29 300.509 390.676C291.168 394.85 280.639 398.418 269.079 401.364C261.905 402.857 250.966 404.812 236.156 407.296L222.482 409.516C208.134 411.986 189.915 412.607 167.72 411.365V411.365Z" fill="#7B6E36"/>
<path fill-rule="evenodd" clip-rule="evenodd" d="M496.21 135.052C486.341 149.81 477.569 164.013 469.932 177.581C470.659 166.748 470.395 155.029 469.219 142.438C475.151 133.295 481.294 124.575 487.689 116.172C493.105 109.514 495.946 105.946 496.21 105.431C503.846 94.5973 509.514 90.5149 513.24 93.2497C515.459 94.703 515.816 98.4156 514.323 104.348C513.081 109.249 511.377 113.226 509.157 116.172C508.18 117.15 503.846 123.439 496.21 135.052V135.052Z" fill="#8A7C3E"/>
</svg>
